{"title":"Gravity(2013)MPEG-4(720p)[DaScubaDude]","uid":13188163,"size":903521473,"categoryP":"video","categoryS":"movies","magnet":"?xt=urn:btih:18c4aa142b89524dfa46d54b8e8afd4994a2ac81&amp;dn=Gravity%282013%29MPEG-4%28720p%29%5BDaScubaDude%5D&amp;tr=udp%3A%2F%2Ftracker.leechers-paradise.org%3A6969&amp;tr=udp%3A%2F%2Fzer0day.ch%3A1337&amp;tr=udp%3A%2F%2Fopen.demonii.com%3A1337&amp;tr=udp%3A%2F%2Ftracker.coppersurfer.tk%3A6969&amp;tr=udp%3A%2F%2Fexodus.desync.com%3A6969","seeders":0,"leechers":0,"uploader":"dascuba","files":1,"time":1452401568,"description":"Gravity (2013)\r\nPG-13  |  91 min  |  Sci-Fi, Thriller  |  4 October 2013 (USA)\r\n7.9 Your rating:   -/10   Ratings: 7.9/10 from 547,037 users   Metascore: 96/100\r\nReviews: 1,851 user | 725 critic | 49 from Metacritic.com\r\nA medical engineer and an astronaut work together to survive after an accident leaves them adrift in space.\r\n\r\nDirector: Alfonso Cuarón\r\nWriters: Alfonso Cuarón, Jonás Cuarón, 1 more credit »\r\nStars: Sandra Bullock, George Clooney, Ed Harris \r\n\r\nGeneral\r\nComplete name                            :GravityGRAVITY_Title1.mp4\r\nFormat                                   : MPEG-4\r\nFormat profile                           : Base Media\r\nCodec ID                                 : isom\r\nFile size                                : 862 MiB\r\nDuration                                 : 1h 30mn\r\nOverall bit rate                         : 1 325 Kbps\r\nMovie name                               : GRAVITY\r\nGenre                                    : Science_Fiction\r\nWriting application                      : Lavf54.6.100\r\n\r\nVideo\r\nID                                       : 1\r\nFormat                                   : AVC\r\nFormat/Info                              : Advanced Video Codec\r\nFormat profile                           :   \r\nFormat settings, CABAC                   : No\r\nFormat settings, ReFrames                : 6 frames\r\nCodec ID                                 : avc1\r\nCodec ID/Info                            : Advanced Video Coding\r\nDuration                                 : 1h 30mn\r\nBit rate                                 : 1 190 Kbps\r\nWidth                                    : 720 pixels\r\nHeight                                   : 404 pixels\r\nDisplay aspect ratio                     : 16:9\r\nFrame rate mode                          : Constant\r\nFrame rate                               : 29.970 fps\r\nColor space                              : YUV\r\nChroma subsampling                       : 4:2:0\r\nBit depth                                : 8 bits\r\nScan type                                : Progressive\r\nBits/(Pixel*Frame)                       : 0.137\r\nStream size                              : 774 MiB (90%)\r\n\r\nAudio\r\nID                                       : 2\r\nFormat                                   : AAC\r\nFormat/Info                              : Advanced Audio Codec\r\nFormat profile                           : LC\r\nCodec ID                                 : 40\r\nDuration                                 : 1h 30mn\r\nBit rate mode                            : Constant\r\nBit rate                                 : 128 Kbps\r\nChannel(s)                               : 2 channels\r\nChannel positions                        : Front: L R\r\nSampling rate                            : 44.1 KHz\r\nCompression mode                         : Lossy\r\nStream size                              : 83.2 MiB (10%)","torrent":{"xt":"urn:btih:18c4aa142b89524dfa46d54b8e8afd4994a2ac81","amp;dn":"Gravity%282013%29MPEG-4%28720p%29%5BDaScubaDude%5D","amp;tr":["udp%3A%2F%2Ftracker.leechers-paradise.org%3A6969","udp%3A%2F%2Fzer0day.ch%3A1337","udp%3A%2F%2Fopen.demonii.com%3A1337","udp%3A%2F%2Ftracker.coppersurfer.tk%3A6969","udp%3A%2F%2Fexodus.desync.com%3A6969"],"infoHash":"18c4aa142b89524dfa46d54b8e8afd4994a2ac81","infoHashBuffer":{"type":"Buffer","data":[24,196,170,20,43,137,82,77,250,70,213,75,142,138,253,73,148,162,172,129]},"announce":[],"urlList":[]}}